<?xml version="1.0" encoding="UTF-8"?>
<!DOCTYPE svg PUBLIC "-//W3C//DTD SVG 1.1//EN" "http://www.w3.org/Graphics/SVG/1.1/DTD/svg11.dtd">
<!-- Creator: CorelDRAW 2018 (64-Bit) -->
<svg xmlns="http://www.w3.org/2000/svg" xml:space="preserve" width="40.64mm" height="28.8712mm" version="1.1" style="shape-rendering:geometricPrecision; text-rendering:geometricPrecision; image-rendering:optimizeQuality; fill-rule:evenodd; clip-rule:evenodd"
viewBox="0 0 4064 2887.12"
 xmlns:xlink="http://www.w3.org/1999/xlink">
 <defs>
  <style type="text/css">
   <![CDATA[
    .fil0 {fill:#E0902B}
   ]]>
  </style>
 </defs>
 <g id="Слой_x0020_1">
  <metadata id="CorelCorpID_0Corel-Layer"/>
  <path class="fil0" d="M1361.9 2763.61c-108.71,0 -76.87,-187.13 -76.87,-307.48 0,-96.72 127.19,-241.09 151.25,-258.71 37.64,-27.54 56.96,-22.69 103.48,-63.07 1.99,-1.74 4.57,-4.52 6.53,-6.28 62.41,-55.35 56.55,-23.78 143.42,-87.19 197.82,-144.37 71.26,-51.76 192.15,-115.33l127.29 -77.7c27.58,-15.94 42.03,-15.27 70.33,-34.41 36.27,-24.53 29.78,-59.83 44.05,-18.75 12.38,35.62 -75.31,161.11 -99.18,196.49 -34.77,51.51 -23.36,112.28 -47.6,157.38l-162.61 247.36c-30.44,61.46 -39.95,26.71 -80.35,124.65 -34.79,84.34 -43.32,38.28 -99.29,105.69 -85.98,103.57 -23.14,38.33 -117.79,87.19 -37.92,19.58 -40.54,50.16 -154.81,50.16zm1652.69 -1268.35l15.08 -48.95c5.8,-27.88 5.66,-35.46 9.58,-67.31 17.3,-140.73 42.51,-84.24 63.18,-167.43 10,-40.22 -4.32,-22.61 14.64,-62.23 85.5,-178.67 180.77,23.1 294.67,25.64 -9.1,109.28 -79.66,149.5 -117.12,228.78 -12.26,25.96 -22.34,51.72 -36.61,78.7 -76.16,-1.7 -58.86,-23.12 -138.41,2.83 -35.01,11.42 -42.9,20.32 -78.96,16.52 -27.42,-2.89 -8.47,1.74 -26.05,-6.55zm-2037.04 0l36.27 -194.42c25.93,-67.45 37.13,-13.77 47.4,-91.42 3.5,-26.41 -6.85,-13.32 13.34,-51.72 103.65,-197.29 168.88,14.34 300.14,17.28 -6.33,75.97 -39.15,104.94 -72.86,157.75l-93.68 149.73c-190.27,-15.85 -119.89,28.28 -204.56,19.35 -27.42,-2.89 -8.49,1.74 -26.05,-6.55zm1972.98 -307.48c21.35,17.1 -5.6,37.57 -11.65,65.23 -7.2,32.94 -3.22,35.68 -12.12,64.75 -12.95,42.37 -40.3,75.69 -40.3,126.26 0,28.22 45.1,125.34 66.78,138.22l27.42 11.01c84.15,36.56 138.49,49.8 253.93,-31.73 156.46,-110.51 106.22,-38.19 161.44,-146.9l67.72 -97.1c92.39,-133.01 -42.58,-140.95 193.05,-134.95 119.74,3.08 389.62,-43.23 421.15,-161.33 -88.39,7.35 -135.85,26.13 -200.98,39.23 -18.98,3.83 -1.67,4.06 -21.28,0.17 -35.59,-7.05 24.65,-13.78 -33.97,-13.78 -58.54,0 5.52,2.25 -36.66,15.41l-155.51 23.02c-46.55,0 -44.95,-15.19 -89.69,-25.62 0,-111.9 -5.18,-180.08 -45.27,-275.02 -51.59,-122.1 -177.5,31.6 -287.83,31.6 -4.72,20.23 -6.38,36.87 -10.61,53.46 -20.95,82.39 -54.59,33.01 -91.65,100.52 -7.23,13.18 -29.93,58.45 -56.2,72.87 -73.01,40.04 20.99,-6.7 -84.97,-9.06 -45.94,86.84 -106.92,73.84 -176.4,131.07 -91.31,75.24 -9.98,91.62 -189.89,143.22 -44.73,12.84 -120.54,86.83 -120.54,20.39 0,-119.57 58.72,-221.94 93.78,-316.2 1.11,-2.96 2.49,-6.26 3.59,-9.23l10.5 -27.93c16.13,-53.19 60.92,-142.8 17.13,-181.9 -105,-93.78 -107.35,148.79 -353.71,344.99 -56.85,45.27 -68.79,46.11 -104.39,113.4 -142.02,0 -73.41,13.93 -151.58,66.21 -26.45,17.69 -50.65,21.2 -90.94,27.23 -53.81,8.03 -64.96,2.02 -64.96,-55.01 0,-39.34 26.37,-38.87 59.57,-55.73 60.11,-30.52 51.34,-58.2 96.57,-95.6l108.68 -83.5c22.74,-23.11 25.51,-43.26 49.86,-65.45 56.26,-51.22 64.72,-27.22 172.52,-147.77 19.88,-22.23 15.18,-1 25.27,-38.8 -59.26,-33.28 -130.97,20.73 -175.79,54.84 -72.75,55.36 -145.14,84.36 -208.12,150.59 -24.65,25.94 -36.36,21.77 -71.61,31.67l-67.29 21.59c-35.47,-4.64 4.06,-15.26 -28.1,-15.26 -47.09,0 -40.23,14.14 -87.46,20.85 -44.64,6.32 -58.05,17.58 -117.51,17.58 -46.55,0 -44.95,-15.19 -89.69,-25.62 0,-109.58 -5.52,-181.41 -45.28,-275.02 -51.81,-122.04 -177.31,31.6 -287.82,31.6 -23.18,99.46 10.41,71.57 -64.11,115.24 -50.15,29.4 -23.35,29.76 -55.07,73.06 -9.43,12.87 -13.5,14.49 -26.68,24.57l-83.42 95.95c-24.16,36.74 -63.05,64.6 -100.03,92.13 -74.68,55.6 -145.95,96.69 -224,147.53 -63.98,41.69 -186.56,104.91 -266.64,104.91 -75.57,0 -171.92,-26.65 -192.18,-102.49 37.67,-56.24 141.88,-144.27 230.45,-269.22 101.37,-143.02 146.84,-104.64 205.93,-306.53 18.25,-62.34 18.43,-25.82 47.07,-68.23 34.85,-51.63 0.49,-49.38 27.16,-100.96 13.34,-25.77 46.69,-37.42 59.06,-69.05 16.98,-43.37 -1.9,-51.95 23.4,-104.73 20.49,-42.74 30.62,-31.85 42.87,-85.23l17.61 -238.8c-2.35,-43.78 -19.72,-54.01 -38.59,-89.66 -73.31,0 -79.61,-9.26 -140.92,-25.63 -11.26,16.81 -131.59,139.79 -196.49,251.93 -30.46,52.64 -41.23,94.55 -67.8,149.99 -28.69,59.86 -61.36,82.03 -93.91,136.7 -83.47,140.18 -256.76,521.51 -256.76,665.68 0,112.01 23.39,233.49 79.34,292.2 114.68,120.39 245.54,65.58 422.98,17.95 124.67,-33.48 148.99,-70.52 254.09,-130.26l114.78 -77.4c-21.52,92.35 -56.02,88.55 -17.68,184.23 28.17,70.27 21.13,69.85 82.46,96.91 96.31,42.49 143.27,29.88 243,-37.43 19.96,-13.46 46.08,-34.48 67.76,-47.54 103.46,-62.31 39.8,-5.13 112.64,-130.75l20.43 -30.83c1.62,-2.13 4.09,-4.99 5.75,-7.06 53.52,-67.13 39.69,-168.45 151.85,-168.45 69.68,0 38.57,14.21 105.98,4.34 50.67,-7.43 64.41,-16.1 111.81,-17.16 -32.71,48.86 -64.06,69.58 -64.06,140.92 0,31.93 15.99,95.58 27.41,114.36 20.36,33.41 10.46,16.41 44.89,25.43 47.04,12.32 -9.37,13.95 132.69,13.95 43.8,0 73.89,-20.86 111.47,-33.2 36.88,-12.09 21.28,-9.57 43.48,-29.05l158.11 -98.72c33.7,-27.02 70.95,-42.85 122.54,-44 -99.95,149.24 17.04,250.13 -204.87,358.84 -82.12,40.25 -149.1,73.7 -207.44,138.82 -71.15,79.38 -21.6,-33.85 -116.41,74.55 -52.25,59.74 -117.79,48.47 -179.03,103.7 -43.99,39.66 -22.71,31.7 -84.48,56.44 -33.32,13.35 -61.51,25.41 -94.59,46.33 -126.05,79.81 -213.89,171.28 -264.69,311.84 -15.8,43.7 -32.35,59.35 -38.39,102.55 -19.53,139.78 -31.15,214.81 16.66,351.7 19.99,57.23 105.71,105.09 164.05,103.3 61.65,-1.89 147.61,-31.58 209.06,-52.43 45.18,-15.34 46.29,-38.95 87.01,-53.91 62.3,-22.91 46.24,10.53 81.17,-59.76 44.98,-90.59 17.75,-32.79 73.14,-67.79 32.26,-20.38 9.07,-1.05 30.3,-33.76 53.19,-82 99.37,-121.27 133.91,-224.8 33.82,-101.35 99.92,-63.28 99.92,-194.75l38.44 0c1.54,-69.13 6.64,-44.71 37.42,-90.7l95.37 -174.01c34.32,-62.17 23.7,-32.9 31.58,-91.4l4.33 -24.62c9.67,-52.19 43.44,-92.29 60.15,-146.3 43.87,-141.75 114.59,-53.87 117.06,-164.8 160.07,37.29 131.18,-86.93 260.98,-149.12 90.99,-43.58 65.49,37.12 131.97,-98.53 42.65,-87.05 66.23,-12.74 119.52,-85.46zm-2820.69 2.13c-0.07,-4.34 6.11,-12.15 6.78,-10.29 11.35,31.6 64.49,-187.57 65.4,-190.84 6.66,-23.95 23.03,-52.07 32.26,-70.23 59.65,-117.3 81.77,-110.87 131.97,-239.57 29.44,-75.52 218.56,-445.54 291,-464.88 5.17,62.09 12.82,33.76 12.82,140.93l-76.66 166.76c-97.15,138.34 10.54,76.71 -71.15,185.08l-137.7 208.22c-22.38,47.78 -31.3,83.9 -60.02,119.36 -30.52,37.71 -59.34,39.49 -93,73.54l-101.7 81.92zm1116.75 -258.36c124.67,-2.77 42.94,-78.96 140.92,-89.69 31.21,55.55 0,108.14 0,205 -52.84,12.31 -55.5,15.19 -90.14,-24.55 -29.03,-33.32 -44.44,-41.26 -50.78,-90.76zm2037.04 0c115.4,-2.57 42.82,-63.49 140.92,-89.69 37.02,77.16 11.11,296.42 -90.08,180.5 -26.76,-30.65 -46.96,-44.31 -50.84,-90.81z"/>
 </g>
</svg>
