<?xml version="1.0" standalone="no"?>
<!DOCTYPE svg PUBLIC "-//W3C//DTD SVG 20010904//EN"
 "http://www.w3.org/TR/2001/REC-SVG-20010904/DTD/svg10.dtd">
<svg version="1.0" xmlns="http://www.w3.org/2000/svg"
 width="181.000000pt" height="181.000000pt" viewBox="0 0 181.000000 181.000000"
 preserveAspectRatio="xMidYMid meet">

<g transform="translate(0.000000,181.000000) scale(0.100000,-0.100000)"
fill="#000000" stroke="none">
<path d="M801 1770 c-356 -50 -640 -304 -738 -661 -25 -90 -25 -338 0 -428 72
-264 233 -459 472 -576 500 -243 1089 29 1236 570 18 65 22 107 22 225 0 128
-3 155 -27 233 -114 377 -421 620 -809 641 -51 2 -121 1 -156 -4z m297 -445
c82 -37 146 -106 168 -183 21 -71 14 -185 -15 -263 -64 -168 -241 -245 -364
-157 -15 11 -29 19 -31 17 -2 -2 -11 -38 -21 -79 -20 -86 -62 -175 -98 -208
l-24 -23 -7 49 c-8 64 8 180 45 321 28 102 29 119 19 157 -31 111 52 236 129
193 47 -26 53 -56 31 -140 -37 -136 -40 -157 -30 -183 18 -48 91 -62 143 -27
94 61 136 259 80 369 -11 20 -39 50 -62 67 -36 25 -54 30 -117 33 -65 4 -81 1
-129 -23 -67 -32 -121 -93 -140 -159 -20 -66 -18 -91 9 -155 19 -43 22 -61 14
-82 -9 -25 -12 -27 -36 -18 -69 26 -102 86 -102 187 0 93 22 152 83 218 84 92
168 126 302 120 73 -2 103 -9 153 -31z"/>
</g>
</svg>
