<?xml version="1.0" encoding="UTF-8"?>
<!DOCTYPE svg PUBLIC "-//W3C//DTD SVG 1.1//EN" "http://www.w3.org/Graphics/SVG/1.1/DTD/svg11.dtd">
<!-- Creator: CorelDRAW 2018 (64-Bit) -->
<svg xmlns="http://www.w3.org/2000/svg" xml:space="preserve" width="40.64mm" height="28.8712mm" version="1.1" style="shape-rendering:geometricPrecision; text-rendering:geometricPrecision; image-rendering:optimizeQuality; fill-rule:evenodd; clip-rule:evenodd"
viewBox="0 0 4064 2887.12"
 xmlns:xlink="http://www.w3.org/1999/xlink">
 <defs>
  <style type="text/css">
   <![CDATA[
    .fil0 {fill:black}
   ]]>
  </style>
 </defs>
 <g id="Слой_x0020_1">
  <metadata id="CorelCorpID_0Corel-Layer"/>
  <path class="fil0" d="M2399.53 639.13l0 419.72 624.51 0c-19.08,81.91 -35.05,161.8 -52.87,249.71l-44.71 257.86 -526.93 0 0 1532.48 -585.49 0 0 -1532.48 -507.41 0c-22.49,0 -29.28,-6.79 -29.28,-29.28l0 -478.29 536.69 0c0,-218.67 -13.62,-542.73 114.21,-734.96 100.7,-151.44 119.29,-182.55 305.55,-289.78 160.43,-92.37 589.24,-68.49 790.24,-68.49l0 546.62 -517.18 0c-54.85,0 -107.33,115.08 -107.33,126.89zm-3473.86 693.03c0,291.24 -8.89,557.62 58.75,839.24 21.41,89.16 15.08,108.64 55.06,247.52l267.77 669.2 124.04 217.56c62.99,105.5 146.06,228.18 226.28,320.26 14.19,16.29 13.89,12.81 24.7,24.11l400.98 409.05c1.37,1.48 3.17,3.75 4.57,5.19 73.15,76.03 298.85,235.5 382.94,280.69 51.14,27.48 71.83,50.9 120.06,75.12 356.03,178.72 475.33,237.65 852.39,338.19 111.31,29.68 225.92,45.65 335.97,64.13 289,48.52 629.67,48.77 918.67,0 62.14,-10.49 106.53,-19.09 169.35,-25.83 103.26,-11.07 222.98,-49.39 322.85,-77.24l479.34 -184.26c5.82,-2.73 22.14,-12.45 31.35,-17.46l324.35 -183.11c125.01,-74.81 234.44,-165.29 349.87,-255.21l241.3 -227.15c1.36,-1.49 3.25,-3.67 4.6,-5.16 1.36,-1.48 3.31,-3.61 4.67,-5.09l410.67 -516.5c14.05,-22.64 20.69,-41.03 35.49,-62.11 19.53,-27.83 25.55,-30.94 41.76,-65.59l138.62 -271.31c125.29,-270.46 210.74,-545.96 260.42,-842.48 72.21,-430.98 62.23,-714.82 -10.04,-1142.08 -23.43,-138.55 -54,-274.18 -98.62,-408.92l-318.9 -705.91c-191.7,-317.96 -380.59,-527.8 -653.28,-781.38 -121.05,-112.57 -257.18,-208.29 -395.47,-297.44 -15.44,-9.95 -9.21,-6.45 -16.85,-12.42l-58.41 -39.19c-112.95,-57.23 -181.38,-103.62 -338.26,-178.97l-365.25 -142.2c-80.46,-19.73 -160.29,-57.43 -243.47,-68.81 -164.12,-22.46 -329.91,-75.54 -536.41,-78.38 -277.73,-3.82 -313.28,-24.41 -636.82,16.85 -108.05,13.78 -125.49,2.92 -256.5,36.26 -32.36,8.23 -49.17,15.03 -86.45,20.89 -40.07,6.3 -49.43,4.18 -82.87,14.72l-148.34 46.83c-31.1,9.61 -52.79,11.67 -84.15,23.2 -24.81,9.12 -48.97,17.43 -70.59,27l-141.08 54.1c-117.05,49.14 -233.52,101.78 -341.56,165.9 -45.12,26.78 -80.89,43.06 -126.05,69.13l-234.86 165.27c-91.85,72.45 -190.87,141.72 -276.65,221.08 -160,148.05 -291.66,310.03 -426.03,481.61l-119.56 173.23c-17.28,27.97 -25.93,36.37 -42.88,64.48l-264.43 535.89 -75.4 217.4c-9.2,29.81 -12.32,55.94 -21.64,85.73 -58.25,186.28 -116,494.74 -116,684.37z"/>
 </g>
</svg>
