<?xml version="1.0" encoding="UTF-8"?>
<!DOCTYPE svg PUBLIC "-//W3C//DTD SVG 1.1//EN" "http://www.w3.org/Graphics/SVG/1.1/DTD/svg11.dtd">
<!-- Creator: CorelDRAW 2018 (64-Bit) -->
<svg xmlns="http://www.w3.org/2000/svg" xml:space="preserve" width="40.64mm" height="28.8712mm" version="1.1" style="shape-rendering:geometricPrecision; text-rendering:geometricPrecision; image-rendering:optimizeQuality; fill-rule:evenodd; clip-rule:evenodd"
viewBox="0 0 4064 2887.12"
 xmlns:xlink="http://www.w3.org/1999/xlink">
 <defs>
  <style type="text/css">
   <![CDATA[
    .fil0 {fill:black}
   ]]>
  </style>
 </defs>
 <g id="Слой_x0020_1">
  <metadata id="CorelCorpID_0Corel-Layer"/>
  <path class="fil0" d="M-948.33 800.75c-95.83,0 -244.79,-98.91 -306.94,-161.99 -86.39,-87.67 -129.39,-208.04 -152.76,-326.26 -33.02,-167.08 -32.61,-452.95 34.94,-625.59 46.01,-117.58 90.65,-214.46 159.85,-319.16 16.03,-24.25 32.8,-45.69 51.11,-68.65l117.16 -122.32c20.46,-18.98 12.06,-6.81 31.92,-27.94 119.97,-127.63 328.26,-227.26 494.8,-283.43 264.65,-89.27 530.15,-85.37 802.44,-36.77 195.19,34.84 373.99,110.39 539.05,219.19l229.4 219.61c34.65,36.5 101.76,148.17 122.48,196.86 57.6,135.39 76.08,225.6 89.99,369.11 15.15,156.4 16.6,351.83 -22.9,504.3l-233.5 554.89c-136.92,205.91 -339.38,344.37 -580.08,407.71 -103.9,27.34 -254.53,28.7 -365.62,5.61 -101.08,-21.02 -184.21,-79.81 -263.21,-135.87l-119.73 -79.83c-28.06,120.55 -41.4,225.39 -75.48,343.7 -33.99,117.97 -56.28,219.84 -99.63,329.53 -47.68,120.65 -103.19,242.79 -186.12,342.79 -42.55,51.32 -116.73,135.02 -167.42,161.86 -20.15,-242.34 -40.7,-315.84 -11.77,-570.78 9.71,-85.61 17.09,-171.77 30.09,-249.37 25.74,-153.64 79.07,-294.99 107.14,-441.8 33.62,-175.92 97.96,-367.65 134.68,-544.91 18.71,-90.33 -189.61,-325.52 29.4,-708.33 51.34,-89.74 143.08,-189.93 259.06,-189.93 92.93,0 184.19,14.84 247.31,81.91 107.09,113.82 66.31,273.6 30.62,405.85l-26.03 103.71c-72.38,229.54 -265.57,663.76 30.23,793.18 35.02,15.32 74.09,17.04 115.38,24.41 116.91,20.89 252.17,-16.95 341.33,-90.71l15.45 -14.49c66.38,-61.97 124.09,-121.4 166.66,-202.55 18.08,-34.48 38.81,-52.5 51.99,-87.72 76.71,-204.9 124.26,-365.05 124.26,-594.35 0,-140.99 -10.23,-227.62 -49.73,-359.49 -37.08,-123.8 -100.96,-235.12 -203.83,-315.08 -25.46,-19.79 -32.07,-28.06 -54.05,-45.73 -47.6,-38.3 -76.04,-48.2 -133.85,-75.68 -202.37,-96.2 -498.25,-116.13 -708.54,-25.48 -83.89,36.17 -172.25,70.05 -245.05,124.11 -206.17,153.11 -316.25,279.12 -404.71,513.33 -44.6,118.1 -65.06,372.26 -24.77,482.67 31.71,86.92 94.19,154.74 125.47,243.78 19.53,55.59 26.06,83.74 11.31,144.01 -5.46,22.31 -37.72,132.09 -57.8,132.09zm-2443.76 -469.16c0,277.26 -5.92,466.29 39.73,738.84l116.33 482.5c19.91,59.23 25.05,94.48 50.03,149.57l260.83 537.53c13.45,22.3 23.35,38.88 37.39,62.41l79.98 119.6c17.81,24.37 22.34,38.3 38.37,61.42l178.39 220.76c155.66,185.1 333.13,337.2 523.45,484.34l21.24 18.67c16.46,15.22 4.56,6.94 26.61,23.28l180.11 119.22c45.88,25.81 81.4,47.82 125.07,74.47l548.07 250.08c100.83,38.98 362.34,107.92 471.41,127.16l544.72 53.79c173.04,0 361.85,-4.89 525.83,-32.76 47.15,-8.02 128.1,-15.14 175.27,-24.25 59.38,-11.46 102.69,-24.32 160.64,-38.87 370.03,-92.89 733.81,-241.44 1047.47,-459.03l182.61 -126.7c222.02,-189.03 304.08,-258.99 513.87,-493.93 33.34,-37.32 54.47,-72.67 89.96,-109.61 79.01,-82.25 258.56,-379.05 316.79,-491.52l102.1 -207.26c235.3,-560.51 341.96,-1187.57 242.29,-1794.64 -11.39,-69.4 -9.18,-116.44 -23.33,-176.29 -6.7,-28.35 -10.76,-52.72 -18.45,-81.35 -9.15,-34.02 -16.58,-54.02 -22.17,-87.62 -25.65,-154.05 -90.88,-315 -149.61,-459.18 -10.62,-26.07 -16.77,-44.78 -28.25,-71.55l-227.54 -431.1c-108.52,-174.57 -241.05,-337.4 -379.57,-488.58l-106.04 -103.51c-11.42,-10.93 -13.69,-15.48 -24.04,-25.85l-180.28 -168.95c-41.15,-33.14 -71.03,-57.43 -112.79,-86.77l-372.3 -246.31c-81.94,-49.62 -180.11,-98.19 -269.43,-139.63 -50.98,-23.66 -88.32,-35.82 -142.25,-57.28 -95.42,-37.97 -195.03,-83.93 -294.08,-104.98l-330.82 -78.19c-53.26,-11.54 -129.08,-25.95 -178.49,-31.01 -276,-28.25 -398.19,-17.79 -656.98,-11.32 -113.99,2.86 -247.54,17.64 -358.44,40.58l-166.04 33.47c-199.87,36.36 -481.19,141.33 -666.1,231.79 -29.71,14.54 -36.64,23.4 -63.47,36.31 -26.23,12.61 -42.56,15.89 -69.41,30.35 -154.62,83.22 -393.43,228.14 -520.99,347.05 -6.43,6 -4.88,5.05 -15.6,14.34 -191.15,165.47 -289.66,263.98 -451.65,446.39 -77.65,87.43 -155.45,182.16 -216.16,282.78 -14.8,24.52 -24.99,36.03 -39.64,60.15 -115.1,189.51 -227.24,387.22 -299.78,598.37 -29.14,84.81 -85.97,213.56 -102.49,296.72 -45.36,228.46 -112.37,446.86 -112.37,686.1z"/>
 </g>
</svg>
