<?xml version="1.0" encoding="UTF-8"?>
<!DOCTYPE svg PUBLIC "-//W3C//DTD SVG 1.1//EN" "http://www.w3.org/Graphics/SVG/1.1/DTD/svg11.dtd">
<!-- Creator: CorelDRAW 2018 (64-Bit) -->
<svg xmlns="http://www.w3.org/2000/svg" xml:space="preserve" width="40.64mm" height="28.8712mm" version="1.1" style="shape-rendering:geometricPrecision; text-rendering:geometricPrecision; image-rendering:optimizeQuality; fill-rule:evenodd; clip-rule:evenodd"
viewBox="0 0 4064 2887.12"
 xmlns:xlink="http://www.w3.org/1999/xlink">
 <defs>
  <style type="text/css">
   <![CDATA[
    .fil0 {fill:black}
   ]]>
  </style>
 </defs>
 <g id="Слой_x0020_1">
  <metadata id="CorelCorpID_0Corel-Layer"/>
  <g id="_2412341194512">
   <path class="fil0" d="M385.78 1779.98c0,-326.32 -38.17,-916.43 102.98,-1212.98 57.32,-120.42 110.01,-168.76 229.79,-237.38 31.4,-17.99 11.89,-9.52 53.85,-22.41 186.77,-57.37 96.07,-47.1 303.96,-77.35 524.99,-76.41 1368.23,-65.25 1901.29,-22.56 238.26,19.07 625.96,86.65 736.05,331.66 70.43,156.74 70.85,154.22 94.84,362.86 28.21,245.31 37.11,1206.13 -27.82,1432.85 -35.34,123.38 -93.86,241.69 -195.97,318.9l-106.03 65.58c-50.04,28.3 -207.95,69.51 -270.61,82.1l-306.09 37.07c-62.55,3.1 -97.96,10.25 -161.97,9.62 -66.43,-0.65 -92.59,10.16 -161.81,9.76l-514.98 9.54c-69.11,0.39 -95.23,-10.16 -161.69,-9.89l-340.77 -2.38c-91.36,-12.53 -367.93,-15.24 -476.87,-37.86 -96.12,-19.96 -187.03,-41.21 -282.35,-70.37 -58.16,-17.79 -169.01,-86.06 -213.52,-129.68 -188.72,-184.98 -202.28,-546.29 -202.28,-837.08zm-1601.35 -286.09c0,211.23 16.76,413.84 56.4,611.12 42.45,211.26 55.24,282.89 125.81,493.98l328.66 682.03c31.64,53.03 43.66,81.03 82.34,127.42 136.91,164.22 207.35,295.26 373.92,446.02 8.5,7.69 1.85,1.05 9.92,9.15 150.13,150.6 235.35,229.64 428.06,363.25l248.03 161.92c47.72,28.72 81.9,46.02 129.44,70.76 25.83,13.44 40.61,25.31 66.33,38.54 159.65,82.04 418.51,172.33 587.74,222.57 465.5,138.17 1029.31,156.76 1505.57,59.28 229.67,-47.01 493.64,-109.51 702.41,-212.75 192.73,-95.32 392.68,-190.23 565.75,-320.86l247.39 -181.63c55,-43.06 106.99,-108.35 161.02,-144.07l244.74 -260.57c31.45,-38.95 56.25,-72.08 87.06,-113.15 101.63,-135.46 202.14,-273.14 280.08,-425.48 8.72,-17.04 7.61,-14.34 16.75,-30.92 31.24,-56.7 67.05,-116.61 89.04,-177.94 9.91,-27.64 2.16,-11.23 13.75,-33.92l150.43 -402.6 80.3 -329.73c81.9,-399.35 93.31,-849.14 1.54,-1249.17 -32.68,-142.43 -29.13,-164.45 -80.68,-329.34l-101.74 -298.74c-47.39,-118.56 -106.38,-230.32 -162.84,-342.51l-400.94 -571.57c-11.66,-10.53 -13.97,-12.61 -23.36,-24.3 -109.58,-136.41 -323.03,-336.07 -469.62,-445.64l-571.82 -352.95c-30.93,-13.82 -45.94,-19.22 -72.31,-32.55 -164.41,-83.05 -341.39,-130.07 -516.94,-188.5l-427.95 -86.82 -389.53 -20.34c-226.37,0 -516.28,13.02 -730.81,69.9 -26.12,6.93 -59.38,16.03 -83.65,21.21l-464.07 146.04c-287.26,109.2 -536.67,267.85 -784.38,445.44l-327.21 292.5c-100.59,100.63 -206.6,205.36 -288.28,321.9 -29.37,41.92 -59.21,78.92 -86.24,123.51 -7.47,12.33 -9.8,16.25 -19.39,28.29l-62.13 90.42c-69.35,105.75 -126.79,218.92 -185.14,329.74 -107.22,203.67 -180.49,463.51 -243.76,681.14 -24.76,85.19 -48.07,258.52 -60.61,349.42 -17.1,124 -29.08,249.56 -29.08,390.5z"/>
   <path class="fil0" d="M1758.37 1160.12l0 715.22c0,50.32 43.38,89.35 91.75,82.23l380.94 -171.96c20.63,-12.46 30.83,-20.86 54.45,-31.35 29.15,-12.93 42.3,-11.41 70.41,-24.93 63.35,-30.47 20.12,-18.14 128.49,-62.17 43.63,-17.73 227.15,-100.33 227.15,-144.66 0,-49.66 -36.94,-56.12 -83.99,-78.1 -32.43,-15.15 -60.31,-36.68 -101.64,-50.89 -80.78,-27.78 -37.35,-16.05 -103.27,-49.26 -23.43,-11.8 -28.54,-14.15 -53.18,-23.08 -31.17,-11.3 -32.46,-11.98 -58.81,-26.99l-428.39 -200.81c-62.85,0 -123.91,-14.95 -123.91,66.75z"/>
  </g>
 </g>
</svg>
