<?xml version="1.0" encoding="UTF-8"?>
<!DOCTYPE svg PUBLIC "-//W3C//DTD SVG 1.1//EN" "http://www.w3.org/Graphics/SVG/1.1/DTD/svg11.dtd">
<!-- Creator: CorelDRAW 2021.5 -->
<svg xmlns="http://www.w3.org/2000/svg" xml:space="preserve" width="1000mm" height="1000mm" version="1.1" style="shape-rendering:geometricPrecision; text-rendering:geometricPrecision; image-rendering:optimizeQuality; fill-rule:evenodd; clip-rule:evenodd"
viewBox="0 0 100000 100000"
 xmlns:xlink="http://www.w3.org/1999/xlink"
 xmlns:xodm="http://www.corel.com/coreldraw/odm/2003">
 <defs>
  <style type="text/css">
   <![CDATA[
    .fil0 {fill:black}
   ]]>
  </style>
 </defs>
 <g id="Слой_x0020_1">
  <metadata id="CorelCorpID_0Corel-Layer"/>
  <g id="_2476916962544">
   <path class="fil0" d="M59809.55 70060.7c-7777.06,0 -25803.37,1099.68 -31479.69,-2476.2 -5836.27,-3676.84 -4178.82,-16927 -4178.82,-25772.47 0,-7211.52 3392.33,-9944.93 9182.84,-11173.1 6952.72,-1474.71 30755.42,-1752.19 37062.56,1170.54 7063.06,3273 5827.29,12695.2 5827.29,21867.02 0,11681.33 -3098.29,16384.21 -16414.18,16384.21zm-12602.1 -70056.57l6267.16 0c24512,1590.19 44408.96,21749.2 46521.25,45771.19l0 8543.22c-521.77,5809.39 -2110.15,11737.46 -4937.73,17593.17 -5326.48,11031.17 -14209.73,18794.24 -25242.04,23956.46 -4942.01,2312.27 -13148.24,4135.96 -20194.62,4135.96 -7304.91,0 -15575.09,-2312.7 -20757.87,-4703.73 -21022.17,-9698.19 -32954.53,-33446.53 -27585.71,-56545.78 3454.77,-14863.83 14043.8,-28020.5 27973.18,-34224.98 6064.23,-2701.17 12104.93,-4147.28 17956.38,-4525.51z"/>
   <path class="fil0" d="M59243.52 50286.53c-1431.85,-1950.48 -12125.88,-6611.32 -14150.28,-6779.51 0,9437.99 -1372.2,14134.9 2609.46,12338.95l11540.82 -5559.44z"/>
  </g>
 </g>
</svg>
