<?xml version="1.0" standalone="no"?>
<!DOCTYPE svg PUBLIC "-//W3C//DTD SVG 20010904//EN"
 "http://www.w3.org/TR/2001/REC-SVG-20010904/DTD/svg10.dtd">
<svg version="1.0" xmlns="http://www.w3.org/2000/svg"
 width="176.000000pt" height="177.000000pt" viewBox="0 0 176.000000 177.000000"
 preserveAspectRatio="xMidYMid meet">

<g transform="translate(0.000000,177.000000) scale(0.100000,-0.100000)"
fill="#000000" stroke="none">
<path d="M757 1759 c-287 -39 -539 -223 -672 -488 -119 -237 -115 -548 9 -789
308 -595 1141 -640 1515 -82 101 151 144 297 144 485 1 254 -88 462 -271 637
-159 152 -342 230 -567 242 -49 3 -121 0 -158 -5z m519 -424 c64 -26 65 -38
62 -465 l-3 -380 -33 -32 -32 -33 -368 -3 c-394 -4 -426 0 -461 45 -20 25 -21
37 -21 418 0 386 0 393 21 419 12 15 31 32 43 36 11 5 187 9 389 9 301 1 374
-2 403 -14z"/>
<path d="M1074 1226 c-3 -7 -4 -42 -2 -77 l3 -64 75 0 75 0 3 78 3 77 -76 0
c-54 0 -77 -4 -81 -14z"/>
<path d="M805 1052 c-126 -59 -149 -218 -45 -306 82 -69 208 -49 270 41 34 50
35 141 2 195 -47 75 -149 107 -227 70z"/>
<path d="M510 737 c0 -137 3 -196 12 -205 17 -17 689 -17 706 0 9 9 12 68 12
205 l0 193 -45 0 -45 0 0 -54 c0 -112 -90 -226 -203 -257 -53 -14 -143 -6
-188 16 -91 46 -159 153 -159 250 l0 45 -45 0 -45 0 0 -193z"/>
</g>
</svg>
