<?xml version="1.0" standalone="no"?>
<!DOCTYPE svg PUBLIC "-//W3C//DTD SVG 20010904//EN"
 "http://www.w3.org/TR/2001/REC-SVG-20010904/DTD/svg10.dtd">
<svg version="1.0" xmlns="http://www.w3.org/2000/svg"
 width="177.000000pt" height="177.000000pt" viewBox="0 0 177.000000 177.000000"
 preserveAspectRatio="xMidYMid meet">

<g transform="translate(0.000000,177.000000) scale(0.100000,-0.100000)"
fill="#000000" stroke="none">
<path d="M735 1755 c-194 -36 -349 -119 -486 -261 -302 -314 -329 -800 -64
-1144 297 -386 852 -460 1235 -165 159 122 268 288 321 486 32 120 32 310 0
428 -28 107 -78 215 -135 295 -59 82 -187 202 -267 249 -183 107 -406 149
-604 112z m386 -547 c19 -6 45 -19 57 -29 23 -18 25 -18 73 0 58 23 65 10 20
-38 -31 -33 -28 -37 15 -21 41 16 41 4 2 -38 -33 -33 -38 -46 -47 -117 -21
-152 -126 -311 -249 -378 -137 -75 -330 -76 -467 -4 l-40 22 70 5 c66 6 155
36 169 58 3 5 -8 12 -25 16 -32 6 -119 83 -119 105 0 6 15 11 33 11 l32 0 -40
23 c-42 24 -85 86 -85 125 0 12 1 22 3 22 1 0 17 -4 36 -10 l34 -10 -26 28
c-14 15 -31 40 -36 55 -14 36 -14 103 0 128 10 19 13 17 62 -27 63 -57 172
-110 250 -122 l57 -9 0 44 c0 51 17 87 57 124 48 45 104 58 164 37z"/>
</g>
</svg>
