<?xml version="1.0" encoding="UTF-8"?>
<!DOCTYPE svg PUBLIC "-//W3C//DTD SVG 1.1//EN" "http://www.w3.org/Graphics/SVG/1.1/DTD/svg11.dtd">
<!-- Creator: CorelDRAW 2018 (64-Bit) -->
<svg xmlns="http://www.w3.org/2000/svg" xml:space="preserve" width="40.64mm" height="28.8712mm" version="1.1" style="shape-rendering:geometricPrecision; text-rendering:geometricPrecision; image-rendering:optimizeQuality; fill-rule:evenodd; clip-rule:evenodd"
viewBox="0 0 4064 2887.12"
 xmlns:xlink="http://www.w3.org/1999/xlink">
 <defs>
  <style type="text/css">
   <![CDATA[
    .fil0 {fill:black}
   ]]>
  </style>
 </defs>
 <g id="Слой_x0020_1">
  <metadata id="CorelCorpID_0Corel-Layer"/>
  <path class="fil0" d="M1128.57 1607.07l0 0zm0 0c59.51,0 92.99,12.47 146.23,4.87 62.59,-8.94 87.21,-13.35 137.88,-25.14l-50.37 -20.63c-76.34,-28.88 -137.99,-39.3 -199.39,-94.77l-10.38 -9.9c-8.72,-7.74 -14.14,-11.89 -22.42,-18.14 -33.81,-25.54 -51.31,-38.32 -78.6,-73.53 -75.54,-97.47 -57.71,-69.65 -109.08,-174.83 -31.07,-63.63 -47.25,-154.96 -47.25,-246.72 92.03,48.64 175.19,70.94 284.11,70.94l-133.23 -130.43c-36.21,-35.51 -50.44,-63.44 -76.71,-115.95 -79.02,-157.89 -95.87,-333.58 -40.38,-500.28 11.93,-35.84 32.47,-83.79 47.38,-114.83 50.7,33.91 87.81,100.26 189.8,185.42 108.19,90.33 16.1,42.14 214.23,171.16l157.29 96.28c143.05,79.58 404.23,183.59 564.66,196.13 13.69,1.07 211.95,31.54 223.57,19.93l-1.74 -37.32c-45.89,-233.78 51.06,-466.56 237.3,-619.29 73.19,-60.01 107.08,-67.54 176.96,-96.9 105.92,-44.51 254.61,-51.86 361.85,-30.1 50.03,10.15 154.42,52.84 189.28,74.46l152.52 121.31c39.8,10.3 243.94,-75.66 297.19,-98.43 37.53,-16.04 58.5,-34.15 98.54,-43.46 -17.99,77.12 -60.6,135.56 -109.17,195.01 -74.26,90.86 -141.02,111.95 -154.65,149.58 111.63,-2.48 292.43,-78.98 344.99,-91.21 -13.18,49.32 -62.36,94.67 -96.53,126.55 -17.89,16.7 -20.75,24.45 -37.85,43.27 -26.19,28.83 -54.26,46.85 -78.42,73.71 -27.63,30.73 -53.63,50.59 -91.6,70.66 0,89.07 -12.83,358.78 -32.25,434.01 -20.9,80.98 -37.82,167.49 -69.43,244.85 -10.16,24.88 -12.04,33.87 -19.2,61.9 -8.48,33.18 -9.51,31.49 -22.16,58.95 -33.78,73.3 -60.28,142.01 -102.43,211.88 -10.32,17.12 -14.75,27.64 -25.22,45.75 -108.62,188 -314.57,417.1 -490.25,544.12l-245.49 150.07c-178.48,84.84 -225.91,91.91 -402.74,145.03 -53.77,16.15 -72.07,13.96 -139.14,23.18 -217.77,29.94 -356.52,40.37 -579.52,2.93 -173.29,-29.1 -131.02,-29.18 -257.6,-56.89l-229.24 -85.22c-56.68,-28.63 -176.96,-74.77 -206.19,-118.38 160.35,0 91.46,30.48 340.52,-14.6 93.3,-16.89 61.83,3.89 197.41,-46.06 119.33,-43.97 198.45,-72.67 307.18,-149.26 30.53,-21.5 75.04,-36.97 88.41,-73.86 -151.65,0 -304.25,-63.68 -385.55,-131.8l-26.5 -24.21c-61.26,-56.83 -113.23,-107.07 -149,-185.62 -23.42,-51.43 -34.3,-54.32 -37.62,-94.19zm2709.24 -1510.15l0 0zm-4890.84 1125.01c0,226.94 12.86,444.95 56.61,663.07 13.69,68.27 26.77,97.45 36.29,166.45l94.11 311.41c46.86,134.52 110.05,309.14 180.34,427.98 54.95,92.9 104.7,204.48 169.53,286.76 37.27,47.31 64.79,103.81 104.72,148.78 65.45,73.71 114.63,161.41 181.85,233.9l19.93 20.63c12.5,12.52 11.26,10.91 24.8,25.91 156.14,172.98 345.97,346.16 536.52,477.63 40.88,28.2 87.3,48.92 124.42,78.42l156.53 97.03c168.21,91.65 340.32,173.11 520.38,240.37 29.16,10.9 51.27,15.01 76.97,24.48l235.46 68.86c375.93,103.33 883.39,123.75 1269.55,66.01 106.91,-15.99 243.97,-36.48 339.51,-66.29 26.33,-8.21 39.31,-15.77 77.44,-24.01 166.1,-35.87 294.47,-102.27 450.15,-158.48 73.29,-26.47 141.93,-67.2 211.92,-102.51 137.8,-69.51 372.33,-216.18 495.1,-316.3l216.04 -189.62c38.75,-39.26 72.71,-58.67 111.87,-101.1 213.91,-231.75 407.14,-481.95 557.16,-761.07l191.12 -427.35c88.76,-194.89 148.15,-520.29 179.33,-733.05 20.14,-137.43 27.01,-642.07 4.28,-798.47 -9.52,-65.48 -17.3,-110.52 -29.13,-173.61 -26.17,-139.52 -50.82,-283.07 -100.03,-416.99l-78.43 -235.85c-12.19,-36 -18.44,-35.54 -33.3,-68.1 -115.47,-253.06 -238.99,-503.16 -416.13,-719.49 -33.18,-40.52 -58.1,-79.32 -92.14,-120.81l-169.86 -185.07c-150.12,-163.75 -347.64,-331.3 -534.9,-448.83l-680.21 -354.38 -564.9 -155.35c-386.77,-59.77 -631.23,-66.33 -1020.89,-24.27 -59.03,6.37 -113.78,14.24 -178.54,24.37 -203.12,31.8 -518.75,129.17 -702.32,210.66 -157.44,69.89 -323.98,158.28 -469.18,250.97l-247.09 168.74c-157.41,108.17 -414.83,364.89 -522.16,502.1l-48.47 52.94c-84.77,83.16 -176.61,255.83 -250.13,358.28 -60.85,84.8 -209.74,373.8 -240.66,479.21 -10.38,35.37 -16.93,41.73 -30.38,71.02l-121.42 395.62c-9.04,67.08 -23.84,102.46 -36.64,166.11 -12.18,60.59 -14.49,123.75 -22.77,179.96 -18.04,122.57 -32.25,246.15 -32.25,383.33z"/>
 </g>
</svg>
