<?xml version="1.0" encoding="UTF-8"?>
<!DOCTYPE svg PUBLIC "-//W3C//DTD SVG 1.1//EN" "http://www.w3.org/Graphics/SVG/1.1/DTD/svg11.dtd">
<!-- Creator: CorelDRAW 2018 (64-Bit) -->
<svg xmlns="http://www.w3.org/2000/svg" xml:space="preserve" width="40.64mm" height="28.8712mm" version="1.1" style="shape-rendering:geometricPrecision; text-rendering:geometricPrecision; image-rendering:optimizeQuality; fill-rule:evenodd; clip-rule:evenodd"
viewBox="0 0 4064 2887.12"
 xmlns:xlink="http://www.w3.org/1999/xlink">
 <defs>
  <style type="text/css">
   <![CDATA[
    .fil0 {fill:black}
    .fil1 {fill:#020202}
   ]]>
  </style>
 </defs>
 <g id="Слой_x0020_1">
  <metadata id="CorelCorpID_0Corel-Layer"/>
  <g id="_2412208297856">
   <path class="fil0" d="M210.73 2478.36l0 -2713.28c0,-45.53 17.87,-108.09 31.85,-145.12 25.53,-67.64 115.47,-147.94 178.55,-185.27 23.37,-13.83 117.51,-33.35 153.52,-33.35l2714.63 0c202.87,0 363.92,186.38 363.92,363.74l0 2732.94c0,80.1 -57.56,178.69 -111.53,232.6 -56.21,56.15 -148.71,111.47 -232.71,111.47l-2744.15 0c-170.41,0 -354.08,-167.38 -354.08,-363.73zm-1593.38 -1572.92c0,251.29 -7.83,521.19 41.77,764.37 9.63,47.18 15.96,116.92 28.81,167.83 39.67,157.18 81.38,309.79 139.64,460.1 59.47,153.43 127.63,298.87 207.45,441.48l52.57 94.92c14.48,24.11 22.12,36.93 38.47,59.85 41.98,58.83 76.69,125.7 123.11,181.71l423.39 481.24 271.22 220.46c20.43,15.4 34.56,25.1 56.24,42.09 26.34,20.62 31.78,28.78 61.11,47.06l180.74 114.27c27.59,16.23 43.69,19.86 71.26,36.91l550.05 246.52c129.17,59.62 493.45,129.05 653.92,152.53 243.89,35.69 746.03,29.06 989.2,-27.4l486.77 -122.98c22.1,-8.08 52.08,-19.8 72.28,-26.06 124.7,-38.59 241.97,-94.22 358.49,-152.88 58.78,-29.59 144.48,-69.65 197.34,-107.52 25.58,-18.33 34.59,-27.11 64.87,-43.3 27.54,-14.72 36.81,-18.91 61.37,-36.97l295.07 -216.27c23.93,-18.61 30.01,-28.78 50.95,-47.38l622.21 -705.26c59.18,-81.27 99.94,-175.18 151.49,-261.47 52.66,-88.15 121.06,-245.46 159.19,-342.26l41.33 -115.98c50.59,-115.83 132.93,-493.48 152.5,-624.2 46.25,-308.85 41.48,-792.78 -30.63,-1096.26l-155.73 -552.16c-11.12,-36.29 -20.24,-46.76 -33.07,-75.09 -31.39,-69.27 -55.23,-144.98 -92.67,-212.13l-107.25 -197.55c-25.53,-52.35 -50.03,-73.99 -78.87,-127.62 -47.44,-88.21 -108.31,-158.41 -166.64,-236.5 -49.63,-66.43 -100.6,-136.38 -160.89,-193.1l-281.41 -279.08c-22.4,-20.78 -35.39,-27.92 -59.06,-49.1 -74.22,-66.43 -155.58,-118.88 -235,-178.01l-118.73 -77.95c-27.5,-22.29 -28.66,-19.3 -61.02,-37.31 -67.73,-37.7 -133.27,-81.98 -203.89,-110.8 -75.16,-30.69 -166.09,-86.31 -277.57,-125.63l-147.94 -58.58c-85.39,-23.73 -152.38,-50.93 -237.64,-67.23 -93.17,-17.82 -152.67,-45.33 -249.24,-55.63 -58.99,-6.3 -119.05,-20.01 -178.35,-28.19 -260.36,-35.9 -564.97,-37.62 -826.28,-1.09 -57.94,8.1 -118.19,23.24 -168.17,28.52 -111.58,11.8 -295.3,57.1 -406.94,94.64l-215.1 79.92c-29.06,11.39 -49.43,13.14 -74.73,23.62 -121.29,50.24 -292.87,132.17 -397.79,202.08l-121.19 75.49c-55.71,45.51 -123.75,79.16 -182.21,122.64 -167.95,124.91 -333.07,265.91 -471.65,423.18l-225.3 276.17c-42.44,53.98 -75.62,123.47 -118.91,176.08 -21.56,26.2 -21.62,32.77 -37.5,60.82l-291.93 602.81c-47.03,122.89 -78.75,256.15 -114.31,387.12 -26.12,96.24 -75.2,429.22 -75.2,524.51z"/>
   <path class="fil0" d="M545.14 2301.41c0,128.51 64.9,206.44 196.71,206.44l2380.23 0c117.14,0 196.71,-79.53 196.71,-196.61l0 -1366.47 -373.75 0c0,62.5 19.67,110.04 19.67,176.95 0,183 -69.32,435.75 -184.52,582.37l-54.22 73.6c-120.97,134.47 -240.14,236 -410.43,297.6 -13.5,4.88 -35.58,14.33 -49.06,19.77 -232.42,93.94 -551.45,65.64 -783.85,-42.53 -55.86,-25.99 -123.14,-71.79 -170.29,-105.06 -123.95,-87.45 -180.86,-168.83 -261.71,-288.93 -22.59,-33.55 -32.16,-48.78 -48.83,-88.83 -10.64,-25.55 -12.66,-27.19 -21.92,-46.91 -45.98,-98 -83.68,-290.85 -81.03,-400.81l10.21 -177.22 -363.92 0 0 1356.64z"/>
   <path class="fil0" d="M1233.63 1092.23c0,179.91 35.03,280.64 124.47,426.11 23.39,38.05 49.32,57.21 79.62,87.54 68.3,68.36 98.69,96.53 194.93,139.42 30.67,13.67 22.89,14.32 52.21,26.46 120.61,49.96 283.63,44.23 411.82,25.79 150.6,-21.67 349.08,-181.06 435.06,-322.13l74.81 -180.82c55.55,-270.79 -18.68,-509.33 -219.91,-696.14 -345.9,-321.11 -974.44,-196.1 -1129.38,350.26 -12.95,45.67 -23.63,90.42 -23.63,143.51z"/>
   <path class="fil1" d="M2649.97 -126.78l0 422.72c0,40.44 48.11,98.31 78.68,98.31l481.95 0c31.32,0 68.85,-50.1 68.85,-88.48l0 -452.21c0,-42.34 -73.06,-88.48 -118.03,-88.48 -110.12,0 -407.95,-19.31 -465.32,26.44 -22.88,18.25 -46.13,44.57 -46.13,81.7z"/>
  </g>
 </g>
</svg>
