<?xml version="1.0" standalone="no"?>
<!DOCTYPE svg PUBLIC "-//W3C//DTD SVG 20010904//EN"
 "http://www.w3.org/TR/2001/REC-SVG-20010904/DTD/svg10.dtd">
<svg version="1.0" xmlns="http://www.w3.org/2000/svg"
 width="177.000000pt" height="177.000000pt" viewBox="0 0 177.000000 177.000000"
 preserveAspectRatio="xMidYMid meet">

<g transform="translate(0.000000,177.000000) scale(0.100000,-0.100000)"
fill="#000000" stroke="none">
<path d="M775 1760 c-209 -29 -379 -115 -521 -262 -170 -175 -248 -370 -247
-618 1 -188 43 -330 144 -479 303 -454 929 -529 1333 -161 110 101 215 274
251 415 124 482 -159 962 -641 1085 -87 22 -237 32 -319 20z m315 -530 l0 -70
-68 0 c-40 0 -73 -5 -80 -12 -7 -7 -12 -38 -12 -70 l0 -58 80 0 c91 0 89 2 69
-90 l-11 -50 -69 0 -69 0 0 -205 0 -205 -80 0 -80 0 0 205 0 205 -70 0 -70 0
0 70 0 70 70 0 70 0 0 53 c0 70 15 120 47 158 49 58 78 69 181 69 l92 0 0 -70z"/>
</g>
</svg>
